<mxfile host="app.diagrams.net" modified="2020-08-24T01:57:38.404Z" agent="5.0 (Windows NT 10.0; Win64; x64) AppleWebKit/537.36 (KHTML, like Gecko) Chrome/85.0.4181.9 Safari/537.36" etag="xdFuMw9uwTYK2l0p7LUR" version="13.6.4" type="github">
  <diagram id="WrnQYbpCY2WoX9VJuDWH" name="第 1 页">
    <mxGraphModel dx="1383" dy="698" grid="1" gridSize="10" guides="1" tooltips="1" connect="1" arrows="1" fold="1" page="1" pageScale="1" pageWidth="1169" pageHeight="826" math="0" shadow="0">
      <root>
        <mxCell id="0" />
        <mxCell id="1" parent="0" />
        <mxCell id="SjH9K1tZbJp-Q752Gywk-21" value="" style="whiteSpace=wrap;html=1;aspect=fixed;fontSize=16;fillColor=#dae8fc;strokeColor=#6c8ebf;" parent="1" vertex="1">
          <mxGeometry x="880" y="130" width="200" height="200" as="geometry" />
        </mxCell>
        <mxCell id="SjH9K1tZbJp-Q752Gywk-9" value="" style="whiteSpace=wrap;html=1;aspect=fixed;fontSize=16;fillColor=#dae8fc;strokeColor=#6c8ebf;" parent="1" vertex="1">
          <mxGeometry x="880" y="370" width="200" height="200" as="geometry" />
        </mxCell>
        <mxCell id="SjH9K1tZbJp-Q752Gywk-6" value="" style="whiteSpace=wrap;html=1;aspect=fixed;fontSize=16;fillColor=#dae8fc;strokeColor=#6c8ebf;" parent="1" vertex="1">
          <mxGeometry x="600" y="370" width="200" height="200" as="geometry" />
        </mxCell>
        <mxCell id="SjH9K1tZbJp-Q752Gywk-3" value="" style="whiteSpace=wrap;html=1;aspect=fixed;fontSize=16;fillColor=#dae8fc;strokeColor=#6c8ebf;" parent="1" vertex="1">
          <mxGeometry x="320" y="370" width="200" height="200" as="geometry" />
        </mxCell>
        <mxCell id="SjH9K1tZbJp-Q752Gywk-1" value="" style="fontColor=#0066CC;verticalAlign=top;verticalLabelPosition=bottom;labelPosition=center;align=center;html=1;outlineConnect=0;fillColor=#CCCCCC;strokeColor=#6881B3;gradientColor=none;gradientDirection=north;strokeWidth=2;shape=mxgraph.networks.proxy_server;" parent="1" vertex="1">
          <mxGeometry x="370" y="394.5" width="105" height="105" as="geometry" />
        </mxCell>
        <mxCell id="SjH9K1tZbJp-Q752Gywk-2" value="4.21.25.1&lt;br&gt;代理服务器" style="text;html=1;strokeColor=none;fillColor=none;align=center;verticalAlign=middle;whiteSpace=wrap;rounded=0;fontSize=16;" parent="1" vertex="1">
          <mxGeometry x="332" y="502.5" width="176" height="20" as="geometry" />
        </mxCell>
        <mxCell id="SjH9K1tZbJp-Q752Gywk-4" value="" style="fontColor=#0066CC;verticalAlign=top;verticalLabelPosition=bottom;labelPosition=center;align=center;html=1;outlineConnect=0;fillColor=#CCCCCC;strokeColor=#6881B3;gradientColor=none;gradientDirection=north;strokeWidth=2;shape=mxgraph.networks.server_storage;" parent="1" vertex="1">
          <mxGeometry x="927.5" y="401" width="105" height="105" as="geometry" />
        </mxCell>
        <mxCell id="SjH9K1tZbJp-Q752Gywk-5" value="" style="fontColor=#0066CC;verticalAlign=top;verticalLabelPosition=bottom;labelPosition=center;align=center;html=1;outlineConnect=0;fillColor=#CCCCCC;strokeColor=#6881B3;gradientColor=none;gradientDirection=north;strokeWidth=2;shape=mxgraph.networks.server;" parent="1" vertex="1">
          <mxGeometry x="655" y="401" width="90" height="100" as="geometry" />
        </mxCell>
        <mxCell id="SjH9K1tZbJp-Q752Gywk-8" value="3.21.25.1&lt;br&gt;业务服务器" style="text;html=1;strokeColor=none;fillColor=none;align=center;verticalAlign=middle;whiteSpace=wrap;rounded=0;fontSize=16;" parent="1" vertex="1">
          <mxGeometry x="612" y="519" width="176" height="20" as="geometry" />
        </mxCell>
        <mxCell id="SjH9K1tZbJp-Q752Gywk-10" value="3.21.25.2&lt;br&gt;数据服务器" style="text;html=1;strokeColor=none;fillColor=none;align=center;verticalAlign=middle;whiteSpace=wrap;rounded=0;fontSize=16;" parent="1" vertex="1">
          <mxGeometry x="892" y="519" width="176" height="20" as="geometry" />
        </mxCell>
        <mxCell id="SjH9K1tZbJp-Q752Gywk-12" value="" style="endArrow=classic;html=1;fontSize=16;exitX=1;exitY=0.25;exitDx=0;exitDy=0;entryX=0;entryY=0.25;entryDx=0;entryDy=0;" parent="1" source="SjH9K1tZbJp-Q752Gywk-3" target="SjH9K1tZbJp-Q752Gywk-6" edge="1">
          <mxGeometry width="50" height="50" relative="1" as="geometry">
            <mxPoint x="510" y="470" as="sourcePoint" />
            <mxPoint x="560" y="420" as="targetPoint" />
          </mxGeometry>
        </mxCell>
        <mxCell id="SjH9K1tZbJp-Q752Gywk-13" value="" style="endArrow=classic;html=1;fontSize=16;exitX=1;exitY=0.75;exitDx=0;exitDy=0;entryX=0;entryY=0.75;entryDx=0;entryDy=0;" parent="1" source="SjH9K1tZbJp-Q752Gywk-3" target="SjH9K1tZbJp-Q752Gywk-6" edge="1">
          <mxGeometry width="50" height="50" relative="1" as="geometry">
            <mxPoint x="533" y="450" as="sourcePoint" />
            <mxPoint x="605" y="448" as="targetPoint" />
          </mxGeometry>
        </mxCell>
        <mxCell id="SjH9K1tZbJp-Q752Gywk-14" value="" style="whiteSpace=wrap;html=1;aspect=fixed;fontSize=16;fillColor=#dae8fc;strokeColor=#6c8ebf;" parent="1" vertex="1">
          <mxGeometry x="600" y="130" width="200" height="200" as="geometry" />
        </mxCell>
        <mxCell id="SjH9K1tZbJp-Q752Gywk-15" value="" style="fontColor=#0066CC;verticalAlign=top;verticalLabelPosition=bottom;labelPosition=center;align=center;html=1;outlineConnect=0;fillColor=#CCCCCC;strokeColor=#6881B3;gradientColor=none;gradientDirection=north;strokeWidth=2;shape=mxgraph.networks.server;" parent="1" vertex="1">
          <mxGeometry x="655" y="154.5" width="90" height="100" as="geometry" />
        </mxCell>
        <mxCell id="SjH9K1tZbJp-Q752Gywk-16" value="" style="endArrow=classic;html=1;fontSize=16;exitX=0.5;exitY=0;exitDx=0;exitDy=0;entryX=0.5;entryY=1;entryDx=0;entryDy=0;" parent="1" source="SjH9K1tZbJp-Q752Gywk-6" target="SjH9K1tZbJp-Q752Gywk-14" edge="1">
          <mxGeometry width="50" height="50" relative="1" as="geometry">
            <mxPoint x="680" y="320" as="sourcePoint" />
            <mxPoint x="630" y="370" as="targetPoint" />
          </mxGeometry>
        </mxCell>
        <mxCell id="SjH9K1tZbJp-Q752Gywk-18" value="4.21.13.1&lt;br&gt;和融API服务器" style="text;html=1;strokeColor=none;fillColor=none;align=center;verticalAlign=middle;whiteSpace=wrap;rounded=0;fontSize=16;" parent="1" vertex="1">
          <mxGeometry x="612" y="270" width="176" height="20" as="geometry" />
        </mxCell>
        <mxCell id="SjH9K1tZbJp-Q752Gywk-19" value="" style="fontColor=#0066CC;verticalAlign=top;verticalLabelPosition=bottom;labelPosition=center;align=center;html=1;outlineConnect=0;fillColor=#CCCCCC;strokeColor=#6881B3;gradientColor=none;gradientDirection=north;strokeWidth=2;shape=mxgraph.networks.server;" parent="1" vertex="1">
          <mxGeometry x="935" y="150" width="90" height="100" as="geometry" />
        </mxCell>
        <mxCell id="SjH9K1tZbJp-Q752Gywk-20" value="4.21.18.1&lt;br&gt;钉钉业务服务器" style="text;html=1;strokeColor=none;fillColor=none;align=center;verticalAlign=middle;whiteSpace=wrap;rounded=0;fontSize=16;" parent="1" vertex="1">
          <mxGeometry x="892" y="270" width="176" height="20" as="geometry" />
        </mxCell>
        <mxCell id="SjH9K1tZbJp-Q752Gywk-22" value="" style="endArrow=classic;html=1;fontSize=16;entryX=0;entryY=0.5;entryDx=0;entryDy=0;exitX=0.75;exitY=0;exitDx=0;exitDy=0;" parent="1" source="SjH9K1tZbJp-Q752Gywk-6" target="SjH9K1tZbJp-Q752Gywk-21" edge="1">
          <mxGeometry width="50" height="50" relative="1" as="geometry">
            <mxPoint x="1020" y="320" as="sourcePoint" />
            <mxPoint x="970" y="370" as="targetPoint" />
            <Array as="points">
              <mxPoint x="840" y="340" />
              <mxPoint x="840" y="230" />
            </Array>
          </mxGeometry>
        </mxCell>
        <mxCell id="SjH9K1tZbJp-Q752Gywk-23" value="8000" style="text;html=1;strokeColor=none;fillColor=none;align=center;verticalAlign=middle;whiteSpace=wrap;rounded=0;fontSize=16;" parent="1" vertex="1">
          <mxGeometry x="655" y="340" width="40" height="20" as="geometry" />
        </mxCell>
        <mxCell id="SjH9K1tZbJp-Q752Gywk-24" value="9012" style="text;html=1;strokeColor=none;fillColor=none;align=center;verticalAlign=middle;whiteSpace=wrap;rounded=0;fontSize=16;" parent="1" vertex="1">
          <mxGeometry x="840" y="210" width="40" height="20" as="geometry" />
        </mxCell>
        <mxCell id="SjH9K1tZbJp-Q752Gywk-25" value="" style="endArrow=classic;html=1;fontSize=16;exitX=1;exitY=0.25;exitDx=0;exitDy=0;entryX=0;entryY=0.25;entryDx=0;entryDy=0;" parent="1" source="SjH9K1tZbJp-Q752Gywk-6" target="SjH9K1tZbJp-Q752Gywk-9" edge="1">
          <mxGeometry width="50" height="50" relative="1" as="geometry">
            <mxPoint x="710" y="380" as="sourcePoint" />
            <mxPoint x="710" y="340" as="targetPoint" />
          </mxGeometry>
        </mxCell>
        <mxCell id="SjH9K1tZbJp-Q752Gywk-26" value="" style="endArrow=classic;html=1;fontSize=16;exitX=1;exitY=0.75;exitDx=0;exitDy=0;entryX=0;entryY=0.75;entryDx=0;entryDy=0;" parent="1" source="SjH9K1tZbJp-Q752Gywk-6" target="SjH9K1tZbJp-Q752Gywk-9" edge="1">
          <mxGeometry width="50" height="50" relative="1" as="geometry">
            <mxPoint x="800" y="506" as="sourcePoint" />
            <mxPoint x="880" y="506" as="targetPoint" />
          </mxGeometry>
        </mxCell>
        <mxCell id="SjH9K1tZbJp-Q752Gywk-27" value="3306" style="text;html=1;strokeColor=none;fillColor=none;align=center;verticalAlign=middle;whiteSpace=wrap;rounded=0;fontSize=16;" parent="1" vertex="1">
          <mxGeometry x="820" y="401" width="40" height="20" as="geometry" />
        </mxCell>
        <mxCell id="SjH9K1tZbJp-Q752Gywk-28" value="27017" style="text;html=1;strokeColor=none;fillColor=none;align=center;verticalAlign=middle;whiteSpace=wrap;rounded=0;fontSize=16;" parent="1" vertex="1">
          <mxGeometry x="820" y="499" width="40" height="20" as="geometry" />
        </mxCell>
        <mxCell id="SjH9K1tZbJp-Q752Gywk-29" value="mongo" style="text;html=1;strokeColor=none;fillColor=none;align=center;verticalAlign=middle;whiteSpace=wrap;rounded=0;fontSize=16;" parent="1" vertex="1">
          <mxGeometry x="820" y="523" width="40" height="20" as="geometry" />
        </mxCell>
        <mxCell id="SjH9K1tZbJp-Q752Gywk-30" value="mariadb" style="text;html=1;strokeColor=none;fillColor=none;align=center;verticalAlign=middle;whiteSpace=wrap;rounded=0;fontSize=16;" parent="1" vertex="1">
          <mxGeometry x="820" y="421" width="40" height="20" as="geometry" />
        </mxCell>
        <mxCell id="SjH9K1tZbJp-Q752Gywk-31" value="900" style="text;html=1;strokeColor=none;fillColor=none;align=center;verticalAlign=middle;whiteSpace=wrap;rounded=0;fontSize=16;" parent="1" vertex="1">
          <mxGeometry x="540" y="401" width="40" height="20" as="geometry" />
        </mxCell>
        <mxCell id="SjH9K1tZbJp-Q752Gywk-32" value="业务" style="text;html=1;strokeColor=none;fillColor=none;align=center;verticalAlign=middle;whiteSpace=wrap;rounded=0;fontSize=16;" parent="1" vertex="1">
          <mxGeometry x="540" y="421" width="40" height="20" as="geometry" />
        </mxCell>
        <mxCell id="SjH9K1tZbJp-Q752Gywk-33" value="919" style="text;html=1;strokeColor=none;fillColor=none;align=center;verticalAlign=middle;whiteSpace=wrap;rounded=0;fontSize=16;" parent="1" vertex="1">
          <mxGeometry x="540" y="499" width="40" height="20" as="geometry" />
        </mxCell>
        <mxCell id="SjH9K1tZbJp-Q752Gywk-34" value="监听" style="text;html=1;strokeColor=none;fillColor=none;align=center;verticalAlign=middle;whiteSpace=wrap;rounded=0;fontSize=16;" parent="1" vertex="1">
          <mxGeometry x="540" y="523" width="40" height="20" as="geometry" />
        </mxCell>
        <mxCell id="SjH9K1tZbJp-Q752Gywk-37" style="edgeStyle=orthogonalEdgeStyle;rounded=0;orthogonalLoop=1;jettySize=auto;html=1;entryX=0;entryY=0.5;entryDx=0;entryDy=0;fontSize=16;" parent="1" source="SjH9K1tZbJp-Q752Gywk-35" target="SjH9K1tZbJp-Q752Gywk-3" edge="1">
          <mxGeometry relative="1" as="geometry" />
        </mxCell>
        <mxCell id="SjH9K1tZbJp-Q752Gywk-38" style="edgeStyle=orthogonalEdgeStyle;rounded=0;orthogonalLoop=1;jettySize=auto;html=1;entryX=0;entryY=0.75;entryDx=0;entryDy=0;fontSize=16;" parent="1" source="SjH9K1tZbJp-Q752Gywk-35" target="SjH9K1tZbJp-Q752Gywk-3" edge="1">
          <mxGeometry relative="1" as="geometry">
            <Array as="points">
              <mxPoint x="220" y="470" />
              <mxPoint x="220" y="520" />
            </Array>
          </mxGeometry>
        </mxCell>
        <mxCell id="SjH9K1tZbJp-Q752Gywk-35" value="" style="fontColor=#0066CC;verticalAlign=top;verticalLabelPosition=bottom;labelPosition=center;align=center;html=1;outlineConnect=0;fillColor=#CCCCCC;strokeColor=#6881B3;gradientColor=none;gradientDirection=north;strokeWidth=2;shape=mxgraph.networks.laptop;" parent="1" vertex="1">
          <mxGeometry x="90" y="442.5" width="100" height="55" as="geometry" />
        </mxCell>
        <mxCell id="SjH9K1tZbJp-Q752Gywk-39" value="900" style="text;html=1;strokeColor=none;fillColor=none;align=center;verticalAlign=middle;whiteSpace=wrap;rounded=0;fontSize=16;" parent="1" vertex="1">
          <mxGeometry x="240" y="450" width="40" height="20" as="geometry" />
        </mxCell>
        <mxCell id="SjH9K1tZbJp-Q752Gywk-40" value="919" style="text;html=1;strokeColor=none;fillColor=none;align=center;verticalAlign=middle;whiteSpace=wrap;rounded=0;fontSize=16;" parent="1" vertex="1">
          <mxGeometry x="240" y="497.5" width="40" height="20" as="geometry" />
        </mxCell>
      </root>
    </mxGraphModel>
  </diagram>
</mxfile>
